<?xml version="1.0" standalone="no"?>
<!DOCTYPE svg PUBLIC "-//W3C//DTD SVG 20010904//EN"
 "http://www.w3.org/TR/2001/REC-SVG-20010904/DTD/svg10.dtd">
<svg version="1.0" xmlns="http://www.w3.org/2000/svg"
 width="50.000000pt" height="50.000000pt" viewBox="0 0 500.000000 500.000000"
 preserveAspectRatio="xMidYMid meet">

<g transform="translate(0.000000,500.000000) scale(0.100000,-0.100000)"
fill="#000000" stroke="none">
<path d="M1422 3408 c-9 -9 -12 -95 -12 -325 l0 -313 -80 0 c-47 0 -80 -4 -80
-10 0 -7 423 -10 1250 -10 827 0 1250 3 1250 10 0 6 -37 10 -90 10 -49 0 -90
3 -90 8 0 4 8 32 16 62 13 41 18 115 21 296 6 306 19 284 -172 284 -186 0
-175 16 -175 -239 0 -216 -8 -277 -45 -358 l-24 -53 -105 0 -106 0 0 313 c0
230 -3 316 -12 325 -8 8 -58 12 -158 12 -100 0 -150 -4 -158 -12 -9 -9 -12
-95 -12 -325 l0 -313 -130 0 -130 0 0 109 c0 138 -12 199 -55 288 -59 120
-176 210 -312 238 -89 19 -573 21 -591 3z m545 -334 c50 -37 63 -77 63 -196
l0 -108 -140 0 -140 0 0 166 0 166 94 -4 c76 -2 100 -7 123 -24z"/>
<path d="M1430 2490 c0 -64 3 -80 15 -80 8 0 15 8 15 18 0 9 10 22 23 27 16 7
23 20 25 48 4 47 -11 67 -49 67 l-29 0 0 -80z m50 20 c0 -16 -4 -30 -10 -30
-5 0 -10 14 -10 30 0 17 5 30 10 30 6 0 10 -13 10 -30z"/>
<path d="M1650 2490 c0 -64 3 -80 15 -80 10 0 15 10 15 30 0 17 5 30 10 30 6
0 10 -13 10 -30 0 -21 5 -30 16 -30 12 0 15 9 13 38 -1 20 1 47 5 59 12 36 -9
63 -49 63 l-35 0 0 -80z m50 30 c0 -11 -4 -20 -10 -20 -5 0 -10 9 -10 20 0 11
5 20 10 20 6 0 10 -9 10 -20z"/>
<path d="M1880 2490 l0 -80 35 0 c24 0 35 5 35 15 0 8 -9 15 -20 15 -13 0 -20
7 -20 20 0 11 7 20 15 20 8 0 15 7 15 15 0 8 -7 15 -15 15 -8 0 -15 7 -15 15
0 8 9 15 20 15 11 0 20 7 20 15 0 10 -11 15 -35 15 l-35 0 0 -80z"/>
<path d="M2097 2563 c-4 -3 -7 -39 -7 -80 0 -58 3 -73 15 -73 12 0 15 14 15
65 0 37 4 65 10 65 6 0 10 -28 10 -65 0 -50 3 -65 15 -65 10 0 15 16 17 62 2
38 8 63 16 66 9 3 12 -14 12 -62 0 -52 3 -66 15 -66 12 0 15 14 15 68 0 40 -5
73 -12 80 -13 13 -110 17 -121 5z"/>
<path d="M2550 2490 c0 -64 3 -80 15 -80 10 0 15 10 15 30 0 17 5 30 10 30 6
0 13 -13 17 -30 3 -17 12 -30 20 -30 12 0 14 7 9 33 -9 45 -9 57 -1 95 7 28 5
32 -14 32 -17 0 -21 -6 -21 -30 0 -16 -4 -30 -10 -30 -5 0 -10 14 -10 30 0 20
-5 30 -15 30 -12 0 -15 -16 -15 -80z"/>
<path d="M2770 2509 c0 -71 12 -99 43 -99 37 0 47 19 47 92 0 54 -3 68 -15 68
-12 0 -15 -14 -15 -66 0 -48 -3 -65 -12 -62 -8 3 -14 28 -16 66 -2 46 -7 62
-17 62 -12 0 -15 -14 -15 -61z"/>
<path d="M3012 2558 c-18 -18 -16 -148 3 -148 11 0 15 16 17 68 4 85 22 84 26
-3 2 -49 7 -65 17 -65 12 0 15 15 15 65 0 37 4 65 10 65 6 0 10 -28 10 -65 0
-52 3 -65 15 -65 13 0 15 13 13 78 l-3 77 -55 3 c-34 2 -60 -2 -68 -10z"/>
<path d="M3292 2558 c-7 -7 -12 -40 -12 -80 0 -54 3 -68 15 -68 8 0 15 9 15
20 0 11 7 20 15 20 8 0 15 -9 15 -20 0 -11 7 -20 15 -20 12 0 15 13 15 61 0
33 -5 69 -10 80 -12 21 -50 25 -68 7z m48 -49 c0 -19 -5 -29 -15 -29 -15 0
-22 50 -9 63 12 12 24 -4 24 -34z"/>
<path d="M3510 2490 c0 -64 3 -80 15 -80 10 0 15 10 15 30 0 17 5 30 10 30 6
0 10 -13 10 -30 0 -21 5 -30 16 -30 12 0 15 9 13 38 -1 20 1 47 5 59 12 36 -9
63 -49 63 l-35 0 0 -80z m50 30 c0 -11 -4 -20 -10 -20 -5 0 -10 9 -10 20 0 11
5 20 10 20 6 0 10 -9 10 -20z"/>
<path d="M1250 2240 c0 -6 33 -10 80 -10 l80 0 0 -300 0 -300 26 -10 c14 -6
79 -10 144 -10 65 0 130 4 144 10 l26 10 0 215 0 215 101 0 c171 0 294 43 389
136 l36 34 182 0 182 0 0 -300 0 -300 26 -10 c14 -6 79 -10 144 -10 65 0 130
4 144 10 l26 10 0 300 0 300 121 0 120 0 19 -43 c30 -66 40 -158 40 -353 0
-140 3 -185 14 -200 13 -17 27 -19 160 -19 106 0 148 4 158 13 20 20 17 455
-4 540 l-15 62 78 0 c46 0 79 4 79 10 0 7 -423 10 -1250 10 -827 0 -1250 -3
-1250 -10z"/>
</g>
</svg>
